<svg xmlns="http://www.w3.org/2000/svg" width="300" height="83" viewBox="0 0 300 83" fill="none"><path d="M170.618 67.9646C170.336 67.6947 170.019 67.4621 169.655 67.2764C169.044 66.967 168.353 66.8111 167.586 66.8111C166.583 66.8111 165.692 67.0536 164.917 67.5413C164.143 68.0289 163.531 68.6923 163.081 69.5339C162.63 70.3755 162.405 71.326 162.405 72.3904C162.405 73.4548 162.63 74.383 163.081 75.2246C163.531 76.0662 164.148 76.7296 164.93 77.2173C165.712 77.7049 166.598 77.9475 167.586 77.9475C168.353 77.9475 169.046 77.7841 169.668 77.4598C170.039 77.2643 170.361 77.0217 170.643 76.742V77.7247H173.519V61.7218H170.621V67.9646H170.618ZM170.452 73.883C170.225 74.3187 169.905 74.6578 169.502 74.9004C169.096 75.1429 168.621 75.2667 168.073 75.2667C167.556 75.2667 167.091 75.1454 166.68 74.9004C166.266 74.6578 165.945 74.3187 165.717 73.883C165.489 73.4474 165.373 72.9424 165.373 72.3657C165.373 71.7889 165.487 71.3112 165.717 70.8829C165.945 70.4547 166.264 70.1156 166.67 69.8656C167.076 69.6156 167.551 69.4893 168.098 69.4893C168.645 69.4893 169.098 69.6106 169.504 69.8557C169.91 70.0983 170.227 70.4399 170.455 70.873C170.682 71.3087 170.799 71.8062 170.799 72.3681C170.799 72.93 170.685 73.4498 170.455 73.8855L170.452 73.883Z" fill="#F90052"></path><path d="M177.546 61.9867C177.074 61.9867 176.683 62.1501 176.373 62.4743C176.064 62.7986 175.908 63.1897 175.908 63.6476C175.908 64.1055 176.064 64.514 176.373 64.8308C176.683 65.1477 177.074 65.3061 177.546 65.3061C178.019 65.3061 178.428 65.1477 178.73 64.8308C179.032 64.514 179.183 64.1179 179.183 63.6476C179.183 63.1773 179.032 62.7986 178.73 62.4743C178.428 62.1501 178.032 61.9867 177.546 61.9867Z" fill="#F90052"></path><path d="M179.007 67.0314H176.086V77.7222H179.007V67.0314Z" fill="#F90052"></path><path d="M188.968 67.9472C188.698 67.6848 188.386 67.4596 188.027 67.2764C187.416 66.967 186.71 66.8111 185.913 66.8111C184.953 66.8111 184.091 67.0437 183.324 67.5091C182.557 67.9745 181.955 68.6057 181.519 69.4027C181.084 70.1998 180.866 71.1008 180.866 72.1033C180.866 73.1058 181.084 74.0142 181.519 74.8261C181.955 75.638 182.557 76.2766 183.324 76.742C184.091 77.2074 184.955 77.44 185.913 77.44C186.695 77.44 187.393 77.289 188.005 76.9871C188.364 76.8113 188.673 76.5861 188.945 76.3212V77.2197C188.945 78.0316 188.683 78.6653 188.161 79.1232C187.636 79.5812 186.925 79.8089 186.024 79.8089C185.302 79.8089 184.685 79.6802 184.175 79.4228C183.665 79.1653 183.205 78.7916 182.792 78.3039L180.955 80.1406C181.472 80.8782 182.165 81.45 183.037 81.856C183.908 82.2619 184.911 82.4649 186.047 82.4649C187.183 82.4649 188.185 82.2446 189.057 81.8015C189.928 81.3584 190.609 80.7421 191.104 79.9525C191.599 79.1628 191.846 78.2371 191.846 77.1752V67.0363H188.97V67.9497L188.968 67.9472ZM188.789 73.5092C188.569 73.9152 188.262 74.232 187.871 74.4622C187.48 74.69 187.019 74.8063 186.487 74.8063C185.955 74.8063 185.492 74.6875 185.094 74.4523C184.695 74.2172 184.386 73.8954 184.165 73.4894C183.945 73.0835 183.834 72.6305 183.834 72.128C183.834 71.6255 183.945 71.1503 184.165 70.7443C184.386 70.3384 184.698 70.0215 185.094 69.7938C185.492 69.5661 185.958 69.4497 186.487 69.4497C187.017 69.4497 187.48 69.5636 187.871 69.7938C188.262 70.0215 188.569 70.3359 188.789 70.7344C189.01 71.133 189.121 71.5983 189.121 72.128C189.121 72.6577 189.01 73.1058 188.789 73.5117V73.5092Z" fill="#F90052"></path><path d="M197.312 67.0314H194.391V77.7222H197.312V67.0314Z" fill="#F90052"></path><path d="M195.851 61.9867C195.379 61.9867 194.988 62.1501 194.678 62.4743C194.369 62.7986 194.213 63.1897 194.213 63.6476C194.213 64.1055 194.369 64.514 194.678 64.8308C194.988 65.1477 195.379 65.3061 195.851 65.3061C196.324 65.3061 196.733 65.1477 197.035 64.8308C197.337 64.514 197.488 64.1179 197.488 63.6476C197.488 63.1773 197.337 62.7986 197.035 62.4743C196.733 62.1501 196.337 61.9867 195.851 61.9867Z" fill="#F90052"></path><path d="M204.352 62.5832H201.451V67.0314H198.95V69.5785H201.451V77.7247H204.352V69.5785H206.852V67.0314H204.352V62.5832Z" fill="#F90052"></path><path d="M215.795 68.0611C215.5 67.7467 215.156 67.4819 214.755 67.2764C214.149 66.967 213.463 66.8111 212.696 66.8111C211.723 66.8111 210.844 67.0536 210.062 67.5413C209.28 68.0289 208.669 68.6923 208.225 69.5339C207.782 70.3755 207.562 71.326 207.562 72.3904C207.562 73.4548 207.782 74.383 208.225 75.2246C208.669 76.0662 209.28 76.7296 210.062 77.2173C210.844 77.7049 211.723 77.9475 212.696 77.9475C213.463 77.9475 214.149 77.7891 214.755 77.4722C215.159 77.2618 215.5 76.9945 215.795 76.6826V77.7272H218.671V67.0363H215.795V68.0636V68.0611ZM215.196 74.4598C214.693 74.9994 214.037 75.2667 213.226 75.2667C212.693 75.2667 212.226 75.1454 211.82 74.9004C211.414 74.6578 211.097 74.3187 210.867 73.883C210.639 73.4474 210.523 72.9424 210.523 72.3657C210.523 71.7889 210.636 71.3062 210.867 70.8706C211.094 70.4349 211.414 70.0958 211.82 69.8532C212.226 69.6106 212.693 69.4869 213.226 69.4869C213.758 69.4869 214.248 69.6082 214.654 69.8532C215.06 70.0958 215.377 70.4374 215.604 70.8706C215.832 71.3062 215.948 71.8038 215.948 72.3657C215.948 73.2221 215.698 73.9201 215.196 74.4573V74.4598Z" fill="#F90052"></path><path d="M224.139 61.7193H221.241V77.7222H224.139V61.7193Z" fill="#F90052"></path><path d="M230.382 77.9673C229.778 77.9673 229.184 77.8856 228.6 77.7247C228.016 77.5613 227.481 77.3385 226.996 77.0489C226.508 76.7618 226.087 76.4103 225.733 75.9969L227.459 74.2494C227.827 74.6627 228.256 74.9722 228.743 75.1801C229.231 75.3855 229.768 75.4895 230.36 75.4895C230.832 75.4895 231.189 75.4227 231.434 75.289C231.677 75.1553 231.8 74.9573 231.8 74.6924C231.8 74.3979 231.672 74.1677 231.412 74.0068C231.154 73.8434 230.818 73.7073 230.404 73.5984C229.991 73.487 229.56 73.3632 229.11 73.2221C228.659 73.081 228.228 72.8978 227.815 72.6676C227.402 72.4399 227.065 72.1206 226.808 71.7146C226.55 71.3087 226.421 70.7815 226.421 70.1329C226.421 69.4844 226.587 68.8631 226.919 68.3631C227.251 67.8606 227.726 67.4695 228.347 67.1898C228.966 66.9101 229.699 66.769 230.538 66.769C231.424 66.769 232.224 66.9249 232.939 67.2343C233.654 67.5437 234.248 68.0091 234.721 68.6279L232.974 70.3755C232.649 69.977 232.283 69.6898 231.877 69.5116C231.471 69.3334 231.033 69.2468 230.56 69.2468C230.132 69.2468 229.803 69.3136 229.575 69.4448C229.347 69.5785 229.231 69.7616 229.231 69.9993C229.231 70.2641 229.36 70.472 229.617 70.6181C229.875 70.7666 230.211 70.8953 230.625 71.0067C231.038 71.1181 231.469 71.2419 231.919 71.383C232.37 71.524 232.798 71.7196 233.204 71.9696C233.61 72.2196 233.941 72.5538 234.199 72.9647C234.456 73.3781 234.585 73.9102 234.585 74.5588C234.585 75.6058 234.209 76.4375 233.456 77.0489C232.704 77.6603 231.679 77.9673 230.379 77.9673H230.382Z" fill="#050831"></path><path d="M241.583 77.945C240.491 77.945 239.508 77.7024 238.64 77.2148C237.768 76.7271 237.083 76.0638 236.58 75.2222C236.078 74.3806 235.828 73.4375 235.828 72.3879C235.828 71.3384 236.078 70.373 236.58 69.5314C237.083 68.6898 237.771 68.024 238.649 67.5289C239.528 67.0338 240.506 66.7863 241.583 66.7863C242.424 66.7863 243.199 66.9423 243.907 67.2517C244.615 67.5611 245.226 68.0042 245.744 68.5809L243.885 70.4621C243.605 70.1527 243.268 69.9176 242.877 69.7542C242.486 69.5908 242.056 69.5116 241.583 69.5116C241.051 69.5116 240.575 69.6329 240.154 69.878C239.734 70.1205 239.402 70.4547 239.159 70.873C238.917 71.2938 238.793 71.7914 238.793 72.3681C238.793 72.9449 238.914 73.4276 239.159 73.8632C239.402 74.2989 239.736 74.638 240.154 74.8806C240.575 75.1231 241.051 75.2469 241.583 75.2469C242.07 75.2469 242.508 75.1627 242.9 74.992C243.291 74.8236 243.627 74.5761 243.907 74.2494L245.788 76.1306C245.241 76.7197 244.615 77.1702 243.907 77.4821C243.199 77.7915 242.424 77.9475 241.583 77.9475V77.945Z" fill="#050831"></path><path d="M256.987 68.8037C256.633 68.1849 256.142 67.6972 255.514 67.3432C254.888 66.9893 254.167 66.8111 253.355 66.8111C252.543 66.8111 251.823 66.9868 251.197 67.3432C250.868 67.5289 250.578 67.7566 250.323 68.019V61.7218H247.424V77.7247H250.323V71.5934C250.323 71.1651 250.415 70.7889 250.6 70.4646C250.786 70.1404 251.038 69.8903 251.363 69.7121C251.687 69.5364 252.056 69.4473 252.469 69.4473C253.103 69.4473 253.62 69.6453 254.019 70.0463C254.417 70.4448 254.618 70.9621 254.618 71.5958V77.7272H257.516V70.9547C257.516 70.1428 257.341 69.4275 256.984 68.8086L256.987 68.8037Z" fill="#050831"></path><path d="M264.89 77.945C263.813 77.945 262.843 77.6975 261.979 77.2024C261.115 76.7073 260.43 76.0365 259.92 75.1875C259.41 74.3385 259.157 73.3904 259.157 72.3434C259.157 71.2963 259.407 70.3557 259.91 69.5215C260.412 68.6873 261.098 68.024 261.969 67.5289C262.841 67.0338 263.806 66.7863 264.868 66.7863C265.93 66.7863 266.937 67.0338 267.801 67.5289C268.665 68.024 269.346 68.6873 269.848 69.5215C270.351 70.3557 270.601 71.2963 270.601 72.3434C270.601 73.3904 270.351 74.3385 269.848 75.1875C269.346 76.0365 268.665 76.7073 267.801 77.2024C266.937 77.6975 265.967 77.945 264.89 77.945ZM264.868 75.2444C265.413 75.2444 265.898 75.1231 266.318 74.8781C266.739 74.6355 267.064 74.2964 267.291 73.8607C267.519 73.4251 267.635 72.9275 267.635 72.3657C267.635 71.8038 267.517 71.3112 267.281 70.8829C267.044 70.4547 266.719 70.1205 266.309 69.8755C265.895 69.6329 265.415 69.5091 264.87 69.5091C264.326 69.5091 263.865 69.6304 263.455 69.8755C263.041 70.1181 262.717 70.4547 262.482 70.8829C262.247 71.3112 262.128 71.8062 262.128 72.3657C262.128 72.9251 262.247 73.4251 262.482 73.8607C262.717 74.2964 263.041 74.6355 263.455 74.8781C263.868 75.1207 264.341 75.2444 264.87 75.2444H264.868Z" fill="#050831"></path><path d="M277.485 77.945C276.408 77.945 275.438 77.6975 274.574 77.2024C273.71 76.7073 273.024 76.0365 272.514 75.1875C272.004 74.3385 271.752 73.3904 271.752 72.3434C271.752 71.2963 272.002 70.3557 272.504 69.5215C273.007 68.6873 273.692 68.024 274.564 67.5289C275.435 67.0338 276.4 66.7863 277.462 66.7863C278.524 66.7863 279.532 67.0338 280.396 67.5289C281.259 68.024 281.94 68.6873 282.443 69.5215C282.945 70.3557 283.195 71.2963 283.195 72.3434C283.195 73.3904 282.945 74.3385 282.443 75.1875C281.94 76.0365 281.259 76.7073 280.396 77.2024C279.532 77.6975 278.561 77.945 277.485 77.945ZM277.462 75.2444C278.007 75.2444 278.492 75.1231 278.913 74.8781C279.334 74.6355 279.658 74.2964 279.886 73.8607C280.113 73.4251 280.23 72.9275 280.23 72.3657C280.23 71.8038 280.111 71.3112 279.876 70.8829C279.638 70.4547 279.314 70.1205 278.903 69.8755C278.49 69.6329 278.009 69.5091 277.465 69.5091C276.92 69.5091 276.46 69.6304 276.049 69.8755C275.636 70.1181 275.311 70.4547 275.076 70.8829C274.841 71.3112 274.722 71.8062 274.722 72.3657C274.722 72.9251 274.841 73.4251 275.076 73.8607C275.311 74.2964 275.636 74.6355 276.049 74.8781C276.462 75.1207 276.935 75.2444 277.465 75.2444H277.462Z" fill="#050831"></path><path d="M285.054 77.7247V61.7218H287.953V77.7247H285.054Z" fill="#050831"></path><path d="M296.765 7.40365C296.686 7.56454 296.522 7.66356 296.344 7.66356C296.195 7.66356 296.057 7.59425 295.968 7.47543L294.846 5.98777H294.448V7.19077C294.448 7.45068 294.238 7.66108 293.978 7.66108C293.718 7.66108 293.507 7.45068 293.507 7.19077V3.00255C293.507 2.74264 293.718 2.53224 293.978 2.53224H295.183C296.139 2.53224 296.943 3.29216 296.95 4.25011C296.955 4.94072 296.549 5.56697 295.918 5.8442L296.723 6.91106C296.829 7.05463 296.849 7.24523 296.767 7.40612L296.765 7.40365ZM296.005 4.26001C296.005 3.82435 295.653 3.47286 295.218 3.47286H294.448V5.04715H295.218C295.653 5.04715 296.005 4.69566 296.005 4.26001Z" fill="#050831"></path><path d="M46.2759 25.914V40.251C46.2759 41.5208 45.7957 42.7461 44.9293 43.6768C40.1347 48.8304 33.4117 51.7587 26.3719 51.7587H25.3397C11.3443 51.7587 0 40.4119 0 26.4165V25.4115C0 11.4161 11.3468 0.071784 25.3422 0.071784H26.3744C31.3448 0.0767346 36.2039 1.53964 40.35 4.27981C41.6223 5.14122 42.4293 6.54224 42.5382 8.07693C42.6446 9.61162 42.0431 11.1092 40.902 12.1414C39.1767 13.6909 36.6222 13.8766 34.6915 12.5919C32.2137 10.9879 29.3275 10.1314 26.3744 10.129H25.3422C16.8989 10.129 10.0572 16.9732 10.0572 25.414V26.419C10.0572 34.8598 16.9014 41.704 25.3422 41.704H26.3744C29.9809 41.7213 33.4711 40.4465 36.2212 38.1123V30.9414H30.9785C28.2012 30.9414 25.9511 28.6913 25.9511 25.914C25.9511 23.1367 28.2012 20.8867 30.9785 20.8867H41.2485C44.0258 20.8867 46.2759 23.1367 46.2759 25.914Z" fill="#050831"></path><path d="M135.506 5.09419V46.7363C135.506 49.5136 133.256 51.7637 130.478 51.7637H127.946C126.048 51.7637 124.31 50.6943 123.456 48.9987L109.471 21.2282V46.7388C109.471 49.5161 107.22 51.7661 104.443 51.7661C101.666 51.7661 99.4158 49.5161 99.4158 46.7388V5.02735C99.4158 2.25006 101.666 0 104.443 0H106.941C108.839 0 110.577 1.06933 111.431 2.76492L125.451 30.6047V5.09419C125.451 2.31689 127.701 0.0668333 130.478 0.0668333C133.256 0.0668333 135.506 2.31689 135.506 5.09419Z" fill="#050831"></path><path d="M180.101 5.09419V33.8028C180.091 43.5951 172.205 51.5805 162.365 51.7587C152.271 51.927 144.011 43.4417 144.011 33.3969V5.09419C144.011 2.31689 146.273 0.0668333 149.063 0.0668333C151.853 0.0668333 154.115 2.31689 154.115 5.09419V33.5751C154.066 37.7039 157.165 41.2015 161.289 41.6718C163.516 41.8847 165.732 41.152 167.388 39.6544C169.044 38.1569 169.992 36.0355 169.994 33.8078V5.09419C169.994 2.31689 172.257 0.0668333 175.046 0.0668333C177.836 0.0668333 180.099 2.31689 180.099 5.09419H180.101Z" fill="#050831"></path><path d="M198.693 5.09419V46.7363C198.693 49.5136 196.443 51.7637 193.666 51.7637C190.888 51.7637 188.638 49.5136 188.638 46.7363V5.09419C188.638 2.31689 190.888 0.0668333 193.666 0.0668333C196.443 0.0668333 198.693 2.31689 198.693 5.09419Z" fill="#050831"></path><path d="M243.323 5.09419V46.7363C243.323 49.5136 241.073 51.7637 238.296 51.7637H235.763C233.865 51.7637 232.127 50.6943 231.273 48.9987L217.288 21.2282V46.7388C217.288 49.5161 215.038 51.7661 212.26 51.7661C209.483 51.7661 207.233 49.5161 207.233 46.7388V5.02735C207.233 2.25006 209.483 0 212.26 0H214.758C216.656 0 218.394 1.06933 219.248 2.76492L233.268 30.6047V5.09419C233.268 2.31689 235.518 0.0668333 238.296 0.0668333C241.073 0.0668333 243.323 2.31689 243.323 5.09419Z" fill="#050831"></path><path d="M59.8406 0.0717851C57.0641 0.0717851 54.8132 2.32261 54.8132 5.09914C54.8132 7.87567 57.0641 10.1265 59.8406 10.1265H85.8784C88.6549 10.1265 90.9057 7.87567 90.9057 5.09914C90.9057 2.32261 88.6549 0.0717851 85.8784 0.0717851H59.8406Z" fill="#D5E6F7"></path><path d="M59.8406 20.8916C57.0641 20.8916 54.8132 23.1424 54.8132 25.919C54.8132 28.6955 57.0641 30.9463 59.8406 30.9463H85.8784C88.6549 30.9463 90.9057 28.6955 90.9057 25.919C90.9057 23.1424 88.6549 20.8916 85.8784 20.8916H59.8406Z" fill="#D5ADFB"></path><path d="M59.8406 41.7114C57.0641 41.7114 54.8132 43.9623 54.8132 46.7388C54.8132 49.5153 57.0641 51.7661 59.8406 51.7661H85.8784C88.6549 51.7661 90.9057 49.5153 90.9057 46.7388C90.9057 43.9623 88.6549 41.7114 85.8784 41.7114H59.8406Z" fill="#F90052"></path><path d="M256.865 0.071788C254.089 0.071788 251.838 2.32259 251.838 5.09912C251.838 7.87565 254.089 10.1265 256.865 10.1265H282.903C285.68 10.1265 287.93 7.87565 287.93 5.09912C287.93 2.32259 285.68 0.071788 282.903 0.071788H256.865Z" fill="#050831"></path><path d="M256.865 20.8916C254.089 20.8916 251.838 23.1424 251.838 25.9189C251.838 28.6955 254.089 30.9463 256.865 30.9463H282.903C285.68 30.9463 287.93 28.6955 287.93 25.9189C287.93 23.1424 285.68 20.8916 282.903 20.8916H256.865Z" fill="#050831"></path><path d="M256.865 41.7114C254.089 41.7114 251.838 43.9622 251.838 46.7388C251.838 49.5153 254.089 51.7661 256.865 51.7661H282.903C285.68 51.7661 287.93 49.5153 287.93 46.7388C287.93 43.9622 285.68 41.7114 282.903 41.7114H256.865Z" fill="#050831"></path><path d="M294.978 0.633679C297.436 0.633679 299.436 2.63373 299.436 5.09171C299.436 7.54969 297.436 9.54974 294.978 9.54974C292.52 9.54974 290.52 7.54969 290.52 5.09171C290.52 2.63373 292.52 0.633679 294.978 0.633679ZM294.978 0.0693086C292.203 0.0693086 289.955 2.31689 289.955 5.09171C289.955 7.86653 292.203 10.1141 294.978 10.1141C297.752 10.1141 300 7.86653 300 5.09171C300 2.31689 297.752 0.0693086 294.978 0.0693086Z" fill="#050831"></path></svg>